<?xml version="1.0" encoding="UTF-8"?>
<!DOCTYPE svg PUBLIC "-//W3C//DTD SVG 1.1//EN" "http://www.w3.org/Graphics/SVG/1.1/DTD/svg11.dtd">
<!-- Creator: CorelDRAW -->
<svg xmlns="http://www.w3.org/2000/svg" xml:space="preserve" width="1.70666in" height="1.70666in" version="1.1" style="shape-rendering:geometricPrecision; text-rendering:geometricPrecision; image-rendering:optimizeQuality; fill-rule:evenodd; clip-rule:evenodd"
viewBox="0 0 1707 1707"
 xmlns:xlink="http://www.w3.org/1999/xlink">
 <defs>
  <style type="text/css">
   <![CDATA[
    .fil0 {fill:black}
   ]]>
  </style>
 </defs>
 <g id="Layer_x0020_1">
  <metadata id="CorelCorpID_0Corel-Layer"/>
  <path class="fil0" d="M1089 345l0 -119 -472 0 0 119 472 0zm-525 0l0 -146c0,-14 12,-26 27,-26l525 0c15,0 27,12 27,26l0 146 78 0 0 -168c0,-45 -37,-83 -83,-83l-569 0c-46,0 -84,38 -84,83l0 168 79 0zm1050 768l-5 0 0 460c0,51 -44,93 -99,93l-1313 0c-55,0 -99,-42 -99,-93l0 -460c-57,0 -98,-40 -98,-93l0 -495c0,-99 81,-180 181,-180l251 0 0 -168c0,-75 61,-136 137,-136l569 0c75,0 137,61 137,136l0 168 251 0c100,0 181,81 181,180l0 495c0,51 -42,93 -93,93zm-58 0l-164 0 0 67c0,59 -48,106 -107,106 -59,0 -106,-47 -106,-106l0 -67 -651 0 0 67c0,59 -48,106 -106,106 -59,0 -107,-47 -107,-106l0 -67 -164 0 0 460c0,22 21,40 46,40l1313 0c25,0 46,-18 46,-40l0 -460zm-164 -53l222 0c21,0 39,-18 39,-40l0 -495c0,-70 -57,-127 -127,-127l-1345 0c-71,0 -128,57 -128,127l0 105 509 0c35,0 35,53 0,53l-509 0 0 92 269 0c35,0 35,53 0,53l-269 0 0 192c0,22 18,40 40,40l222 0c0,-32 -7,-75 27,-75l159 0c35,0 27,43 27,75l651 0c0,-32 -8,-75 26,-75l160 0c34,0 27,43 27,75zm-1024 -21l0 141c0,70 107,70 107,0l0 -141 -107 0zm864 0l0 141c0,70 106,70 106,0l0 -141 -106 0zm-174 405l-409 0c-21,0 -37,-16 -37,-36l0 -91c0,-20 16,-36 37,-36l409 0c20,0 37,16 37,36l0 91c0,20 -17,36 -37,36zm-392 -53l375 0 0 -57 -375 0 0 57z"/>
 </g>
</svg>
