<svg xmlns="http://www.w3.org/2000/svg" viewBox="147.199 193.01 88.378 124.746" width="88.378" height="124.746">
  <path fill="#E44D26" d="M 155.242 307.737 L 147.199 217.526 L 235.577 217.526 L 227.526 307.723 L 191.334 317.756 L 155.242 307.737 Z"/>
  <path fill="#F16529" d="M 191.388 310.087 L 220.632 301.979 L 227.513 224.903 L 191.388 224.903 L 191.388 310.087 Z"/>
  <path fill="#EBEBEB" d="M 191.388 258.361 L 176.747 258.361 L 175.737 247.03 L 191.388 247.03 L 191.388 235.966 L 163.645 235.966 L 163.909 238.935 L 166.629 269.424 L 191.388 269.424 L 191.388 258.361 Z M 191.388 287.094 L 191.339 287.107 L 179.018 283.779 L 178.23 274.956 L 167.123 274.956 L 168.673 292.328 L 191.337 298.62 L 191.388 298.605 L 191.388 287.094 Z"/>
  <path d="M 155.422 193.01 L 161.044 193.01 L 161.044 198.566 L 166.188 198.566 L 166.188 193.01 L 171.811 193.01 L 171.811 209.832 L 166.188 209.832 L 166.188 204.199 L 161.045 204.199 L 161.045 209.832 L 155.422 209.832 L 155.422 193.01 L 155.422 193.01 Z M 179.204 198.589 L 174.254 198.589 L 174.254 193.01 L 189.779 193.01 L 189.779 198.589 L 184.827 198.589 L 184.827 209.832 L 179.204 209.832 L 179.204 198.589 L 179.204 198.589 Z M 192.243 193.01 L 198.105 193.01 L 201.712 198.921 L 205.315 193.01 L 211.18 193.01 L 211.18 209.832 L 205.579 209.832 L 205.579 201.494 L 201.712 207.475 L 201.614 207.475 L 197.744 201.494 L 197.744 209.832 L 192.242 209.832 L 192.242 193.01 L 192.243 193.01 Z M 213.979 193.01 L 219.603 193.01 L 219.603 204.272 L 227.51 204.272 L 227.51 209.833 L 213.979 209.833 L 213.979 193.01 L 213.979 193.01 Z" style="fill: rgb(255, 255, 255);"/>
  <path fill="#fff" d="M 191.35 258.361 L 191.35 269.424 L 204.974 269.424 L 203.69 283.773 L 191.35 287.104 L 191.35 298.614 L 214.032 292.328 L 214.198 290.458 L 216.798 261.331 L 217.068 258.361 L 214.086 258.361 L 191.35 258.361 Z M 191.35 235.966 L 191.35 247.03 L 218.075 247.03 L 218.296 244.543 L 218.801 238.935 L 219.066 235.966 L 191.35 235.966 Z"/>
</svg>