<svg xmlns="http://www.w3.org/2000/svg" viewBox="61.203 64.292 313 343.903" width="313" height="343.903">
  <g transform="matrix(0.1, 0, 0, -0.1, 22.203339, 439.195679)" fill="#000000" stroke="none">
    <path d="M1560 3714 c-57 -19 -110 -40 -118 -47 -12 -9 -13 -39 -7 -169 8 -179 17 -155 -89 -234 l-49 -36 -159 48 -160 49 -25 -30 c-55 -67 -123 -178 -114 -189 92 -118 191 -262 187 -273 -3 -7 -15 -44 -26 -81 l-21 -68 -127 -43 c-70 -23 -142 -49 -159 -56 l-33 -14 0 -94 c0 -151 -1 -148 88 -175 42 -13 113 -35 158 -48 l80 -25 27 -82 27 -82 -42 -60 c-23 -33 -66 -95 -96 -138 l-54 -79 46 -66 c25 -37 60 -82 77 -101 l31 -34 158 52 159 52 70 -52 71 -51 0 -165 0 -164 35 -14 c74 -31 200 -63 212 -53 6 5 51 65 99 134 88 124 89 124 129 124 22 0 63 3 90 6 l50 6 95 -131 95 -132 35 7 c19 3 73 20 120 37 l85 32 3 172 2 172 43 30 c24 16 49 36 56 45 19 23 36 21 202 -29 l151 -44 26 31 c15 17 48 63 74 102 l46 71 -22 30 c-13 17 -57 77 -99 135 l-76 106 26 81 25 82 153 51 153 51 5 52 c3 29 3 86 -1 127 l-7 75 -153 46 c-85 26 -156 50 -159 53 -7 7 -52 137 -53 153 0 6 41 70 90 141 50 71 90 135 90 142 0 13 -70 113 -117 168 l-28 32 -150 -50 c-82 -27 -155 -50 -162 -50 -7 0 -42 21 -78 47 l-65 48 0 76 c0 42 -3 117 -6 167 -6 85 -8 91 -33 102 -36 17 -134 48 -175 55 -38 8 -22 25 -176 -189 l-54 -76 -83 0 -82 0 -97 128 c-54 70 -100 130 -103 134 -4 4 -53 -9 -111 -28z m451 -676 c31 -14 76 -43 99 -64 41 -37 46 -39 114 -39 89 -2 149 -27 210 -89 24 -26 52 -67 62 -91 14 -39 24 -49 65 -66 60 -26 123 -93 156 -165 21 -47 25 -66 21 -132 -8 -165 -124 -288 -295 -309 -60 -8 -62 -9 -95 -58 -40 -61 -115 -118 -188 -146 -45 -17 -71 -20 -141 -17 -99 5 -167 32 -241 97 -43 38 -46 39 -104 34 -169 -15 -344 96 -405 257 -43 115 -32 264 27 353 38 58 112 125 166 150 39 18 49 29 62 66 38 107 110 184 214 228 79 33 192 29 273 -9z" style="fill: rgb(0, 130, 198);"/>
    <path d="M1786 2925 c-39 -14 -98 -64 -119 -100 -6 -11 -16 -49 -22 -84 l-11 -65 -44 -11 c-67 -17 -103 -39 -146 -88 -104 -118 -97 -265 15 -377 79 -79 178 -101 281 -65 23 8 45 15 49 15 3 0 17 -18 31 -41 68 -110 211 -151 328 -93 66 33 108 84 128 154 9 30 19 59 23 63 4 4 34 1 66 -8 131 -34 235 44 235 174 0 97 -54 161 -152 182 -61 13 -68 20 -68 70 0 43 -32 95 -79 126 -41 28 -97 30 -165 6 -38 -14 -50 -15 -54 -5 -2 7 -18 34 -35 60 -58 85 -165 121 -261 87z" style="fill: rgb(0, 130, 198);"/>
    <path d="M1446 786 c-59 -22 -87 -56 -93 -110 -10 -87 25 -128 142 -161 83 -23 105 -39 105 -75 0 -65 -93 -68 -184 -6 l-29 20 -28 -34 c-33 -39 -30 -46 38 -80 56 -28 162 -38 217 -20 55 18 86 62 86 120 0 89 -27 115 -162 159 -75 25 -93 40 -84 75 12 49 78 55 158 15 l37 -19 21 36 c12 19 21 37 19 38 -2 2 -23 13 -46 25 -56 28 -146 36 -197 17z" style="fill: rgb(0, 130, 198);"/>
    <path d="M390 551 l0 -241 50 0 49 0 3 78 3 77 36 3 c35 3 38 0 93 -77 l56 -81 60 0 60 0 -55 79 c-30 43 -55 82 -55 86 0 4 16 22 36 39 55 48 66 138 26 207 -28 49 -73 62 -224 67 l-138 4 0 -241z m237 148 c35 -13 43 -25 43 -71 0 -60 -25 -78 -110 -78 l-70 0 0 73 c0 41 3 77 7 80 10 11 99 8 130 -4z" style="fill: rgb(0, 130, 198);"/>
    <path d="M900 550 l0 -240 175 0 175 0 0 40 0 39 -122 3 -123 3 0 55 0 55 108 3 107 3 0 39 0 40 -110 0 -110 0 0 55 0 55 120 0 120 0 0 45 0 45 -170 0 -170 0 0 -240z" style="fill: rgb(0, 130, 198);"/>
    <path d="M1770 750 l0 -39 68 -3 67 -3 3 -197 2 -198 50 0 50 0 2 198 3 197 68 3 67 3 0 39 0 40 -190 0 -190 0 0 -40z" style="fill: rgb(0, 130, 198);"/>
    <path d="M2563 753 c-8 -21 -40 -94 -71 -163 -30 -69 -70 -160 -88 -202 l-33 -78 52 0 52 0 25 53 25 52 103 3 103 3 25 -56 25 -55 51 0 c27 0 48 4 46 8 -1 5 -48 113 -102 240 l-99 232 -49 0 c-47 0 -50 -1 -65 -37z m101 -175 c14 -35 26 -66 26 -70 0 -5 -30 -8 -66 -8 -49 0 -65 3 -61 13 37 93 54 127 63 127 6 0 23 -28 38 -62z" style="fill: rgb(0, 130, 198);"/>
    <path d="M2960 551 l0 -241 45 0 45 0 0 64 c0 74 2 76 94 76 80 0 144 30 168 80 26 52 24 138 -5 180 -41 61 -76 74 -219 78 l-128 4 0 -241z m212 149 c43 -12 58 -34 58 -85 0 -25 -8 -43 -25 -61 -22 -22 -32 -25 -88 -22 l-62 3 -3 74 c-2 41 -1 80 2 88 6 16 65 17 118 3z" style="fill: rgb(0, 130, 198);"/>
    <path d="M3430 550 l0 -240 45 0 45 0 0 240 0 240 -45 0 -45 0 0 -240z" style="fill: rgb(0, 130, 198);"/>
  </g>
</svg>